FrauncesItalic-LightOpMaxGoofMax.ufo
<glyph name="exclam" format="2">
  <advance width="268"/>
  <unicode hex="0021"/>
  <outline>
    <contour>
      <point x="342" y="728" type="curve" smooth="yes"/>
      <point x="361" y="728"/>
      <point x="358" y="724"/>
      <point x="358" y="719" type="curve" smooth="yes"/>
      <point x="358" y="706"/>
      <point x="353" y="697"/>
      <point x="347" y="673" type="curve" smooth="yes"/>
      <point x="206" y="200" type="line" smooth="yes"/>
      <point x="207" y="198"/>
      <point x="204" y="192"/>
      <point x="200" y="192" type="curve" smooth="yes"/>
      <point x="196" y="192"/>
      <point x="197" y="192"/>
      <point x="200" y="201" type="curve" smooth="yes"/>
      <point x="294" y="664" type="line" smooth="yes"/>
      <point x="296" y="677"/>
      <point x="298" y="686"/>
      <point x="301" y="695" type="curve" smooth="yes"/>
      <point x="310" y="720"/>
      <point x="318" y="728"/>
    </contour>
    <component base="period" xScale="0.9329999999999999" yScale="0.9329999999999999" xOffset="-7" yOffset="-1"/>
  </outline>
</glyph>
<glyph name="ampersand" format="2">
  <advance width="570"/>
  <unicode hex="0026"/>
  <outline>
    <contour>
      <point x="185" y="150" type="line" smooth="yes"/>
      <point x="61" y="47"/>
      <point x="-5" y="-59"/>
      <point x="-5" y="-180" type="curve" smooth="yes"/>
      <point x="-5" y="-220"/>
      <point x="14" y="-245"/>
      <point x="39" y="-245" type="curve" smooth="yes"/>
      <point x="53" y="-245"/>
      <point x="64" y="-229"/>
      <point x="64" y="-211" type="curve" smooth="yes"/>
      <point x="64" y="-166"/>
      <point x="25" y="-147"/>
      <point x="25" y="-99" type="curve" smooth="yes"/>
      <point x="25" y="-34"/>
      <point x="65" y="23"/>
      <point x="186" y="122" type="curve" smooth="yes"/>
      <point x="500" y="378" type="line" smooth="yes"/>
      <point x="616" y="475"/>
      <point x="661" y="532"/>
      <point x="661" y="618" type="curve" smooth="yes"/>
      <point x="661" y="679"/>
      <point x="626" y="715"/>
      <point x="590" y="715" type="curve" smooth="yes"/>
      <point x="579" y="715"/>
      <point x="571" y="698"/>
      <point x="571" y="682" type="curve" smooth="yes"/>
      <point x="571" y="645"/>
      <point x="622" y="623"/>
      <point x="622" y="576" type="curve" smooth="yes"/>
      <point x="622" y="524"/>
      <point x="587" y="482"/>
      <point x="498" y="409" type="curve" smooth="yes"/>
    </contour>
    <contour>
      <point x="550" y="205" type="curve" smooth="yes"/>
      <point x="550" y="124"/>
      <point x="473" y="41"/>
      <point x="350" y="41" type="curve" smooth="yes"/>
      <point x="255" y="41"/>
      <point x="191" y="112"/>
      <point x="191" y="223" type="curve" smooth="yes"/>
      <point x="191" y="323"/>
      <point x="284" y="407"/>
      <point x="365" y="407" type="curve" smooth="yes"/>
      <point x="440" y="407"/>
      <point x="461" y="366"/>
      <point x="461" y="324" type="curve" smooth="yes"/>
      <point x="461" y="356"/>
      <point x="412" y="306"/>
      <point x="413" y="306" type="curve" smooth="yes"/>
      <point x="421" y="313"/>
      <point x="431" y="327"/>
      <point x="449" y="327" type="curve" smooth="yes"/>
      <point x="480" y="327"/>
      <point x="499" y="345"/>
      <point x="499" y="369" type="curve" smooth="yes"/>
      <point x="499" y="424"/>
      <point x="469" y="469"/>
      <point x="425" y="469" type="curve" smooth="yes"/>
      <point x="298" y="469"/>
      <point x="170" y="311"/>
      <point x="170" y="171" type="curve" smooth="yes"/>
      <point x="170" y="58"/>
      <point x="230" y="-15"/>
      <point x="318" y="-15" type="curve" smooth="yes"/>
      <point x="453" y="-15"/>
      <point x="596" y="133"/>
      <point x="596" y="258" type="curve" smooth="yes"/>
      <point x="596" y="288"/>
      <point x="597" y="305"/>
      <point x="576" y="305" type="curve" smooth="yes"/>
      <point x="553" y="305"/>
      <point x="540" y="287"/>
      <point x="540" y="261" type="curve" smooth="yes"/>
      <point x="540" y="245"/>
      <point x="550" y="233"/>
    </contour>
  </outline>
</glyph>
<glyph name="zero" format="2">
  <advance width="564"/>
  <unicode hex="0030"/>
  <outline>
    <contour>
      <point x="470" y="643" type="curve" smooth="yes"/>
      <point x="336" y="643"/>
      <point x="223" y="515"/>
      <point x="170" y="314" type="curve" smooth="yes"/>
      <point x="114" y="104"/>
      <point x="167" y="-15"/>
      <point x="295" y="-15" type="curve" smooth="yes"/>
      <point x="428" y="-15"/>
      <point x="548" y="106"/>
      <point x="608" y="329" type="curve" smooth="yes"/>
      <point x="661" y="523"/>
      <point x="598" y="643"/>
    </contour>
    <contour>
      <point x="539" y="289" type="curve" smooth="yes"/>
      <point x="486" y="95"/>
      <point x="406" y="19"/>
      <point x="325" y="19" type="curve" smooth="yes"/>
      <point x="192" y="19"/>
      <point x="172" y="114"/>
      <point x="235" y="347" type="curve" smooth="yes"/>
      <point x="278" y="506"/>
      <point x="351" y="610"/>
      <point x="445" y="610" type="curve" smooth="yes"/>
      <point x="572" y="610"/>
      <point x="598" y="514"/>
    </contour>
  </outline>
</glyph>
<glyph name="one" format="2">
  <advance width="439"/>
  <unicode hex="0031"/>
  <outline>
    <contour>
      <point x="255" y="556" type="line" smooth="yes"/>
      <point x="241" y="556"/>
      <point x="237" y="564"/>
      <point x="238" y="573" type="curve" smooth="yes"/>
      <point x="241" y="581"/>
      <point x="253" y="589"/>
      <point x="267" y="589" type="curve" smooth="yes"/>
      <point x="318" y="589" type="line" smooth="yes"/>
      <point x="342" y="589"/>
      <point x="360" y="597"/>
      <point x="386" y="620" type="curve" smooth="yes"/>
      <point x="397" y="633"/>
      <point x="407" y="639"/>
      <point x="420" y="639" type="curve" smooth="yes"/>
      <point x="433" y="639"/>
      <point x="437" y="632"/>
      <point x="433" y="615" type="curve" smooth="yes"/>
      <point x="288" y="72" type="line" smooth="yes"/>
      <point x="282" y="52"/>
      <point x="298" y="37"/>
      <point x="327" y="36" type="curve" smooth="yes"/>
      <point x="408" y="32" type="line" smooth="yes"/>
      <point x="421" y="33"/>
      <point x="426" y="26"/>
      <point x="424" y="18" type="curve" smooth="yes"/>
      <point x="421" y="6"/>
      <point x="412" y="0"/>
      <point x="399" y="0" type="curve" smooth="yes"/>
      <point x="76" y="0" type="line" smooth="yes"/>
      <point x="62" y="0"/>
      <point x="55" y="5"/>
      <point x="59" y="18" type="curve" smooth="yes"/>
      <point x="62" y="28"/>
      <point x="71" y="36"/>
      <point x="87" y="35" type="curve" smooth="yes"/>
      <point x="167" y="39" type="line" smooth="yes"/>
      <point x="198" y="39"/>
      <point x="229" y="51"/>
      <point x="235" y="72" type="curve" smooth="yes"/>
      <point x="353" y="514" type="line" smooth="yes"/>
      <point x="360" y="544"/>
      <point x="347" y="556"/>
      <point x="318" y="556" type="curve" smooth="yes"/>
    </contour>
  </outline>
</glyph>
<glyph name="four" format="2">
  <advance width="500"/>
  <unicode hex="0034"/>
  <outline>
    <contour>
      <point x="375" y="345" type="curve" smooth="yes"/>
      <point x="305" y="74" type="line" smooth="yes"/>
      <point x="297" y="47"/>
      <point x="281" y="29"/>
      <point x="255" y="27" type="curve" smooth="yes"/>
      <point x="192" y="21" type="line" smooth="yes"/>
      <point x="183" y="22"/>
      <point x="177" y="16"/>
      <point x="176" y="8" type="curve" smooth="yes"/>
      <point x="175" y="3"/>
      <point x="180" y="0"/>
      <point x="197" y="0" type="curve" smooth="yes"/>
      <point x="422" y="0" type="line" smooth="yes"/>
      <point x="439" y="0"/>
      <point x="447" y="3"/>
      <point x="447" y="8" type="curve" smooth="yes"/>
      <point x="449" y="16"/>
      <point x="443" y="16"/>
      <point x="430" y="18" type="curve" smooth="yes"/>
      <point x="394" y="25" type="line" smooth="yes"/>
      <point x="370" y="27"/>
      <point x="361" y="44"/>
      <point x="369" y="71" type="curve" smooth="yes"/>
      <point x="466" y="437" type="line" smooth="yes"/>
      <point x="465" y="435"/>
      <point x="463" y="433"/>
      <point x="460" y="433" type="curve" smooth="yes"/>
      <point x="455" y="433"/>
      <point x="450" y="431"/>
      <point x="444" y="420" type="curve" smooth="yes"/>
      <point x="398" y="370" type="line" smooth="yes"/>
      <point x="388" y="357"/>
      <point x="378" y="350"/>
    </contour>
    <contour>
      <point x="291" y="427" type="curve" smooth="yes"/>
      <point x="85" y="209" type="line" smooth="yes"/>
      <point x="68" y="187"/>
      <point x="84" y="184"/>
      <point x="84" y="183" type="curve" smooth="yes"/>
      <point x="81" y="174"/>
      <point x="87" y="168"/>
      <point x="99" y="168" type="curve" smooth="yes"/>
      <point x="483" y="168" type="line" smooth="yes"/>
      <point x="491" y="168"/>
      <point x="498" y="174"/>
      <point x="498" y="186" type="curve" smooth="yes"/>
      <point x="501" y="196"/>
      <point x="499" y="199"/>
      <point x="492" y="199" type="curve" smooth="yes"/>
      <point x="87" y="199" type="line"/>
      <point x="105" y="168" type="line"/>
      <point x="390" y="484" type="line" smooth="yes"/>
      <point x="413" y="519"/>
      <point x="422" y="541"/>
      <point x="433" y="582" type="curve" smooth="yes"/>
      <point x="442" y="616"/>
      <point x="429" y="639"/>
      <point x="404" y="639" type="curve" smooth="yes"/>
      <point x="375" y="639"/>
      <point x="352" y="622"/>
      <point x="348" y="603" type="curve" smooth="yes"/>
      <point x="338" y="567"/>
      <point x="348" y="555"/>
      <point x="337" y="520" type="curve" smooth="yes"/>
      <point x="323" y="468"/>
      <point x="305" y="446"/>
    </contour>
  </outline>
</glyph>
<glyph name="five" format="2">
  <advance width="499"/>
  <unicode hex="0035"/>
  <outline>
    <contour>
      <point x="112" y="116" type="curve" smooth="yes"/>
      <point x="96" y="45"/>
      <point x="154" y="-15"/>
      <point x="242" y="-15" type="curve" smooth="yes"/>
      <point x="368" y="-15"/>
      <point x="479" y="76"/>
      <point x="510" y="211" type="curve" smooth="yes"/>
      <point x="533" y="316"/>
      <point x="479" y="387"/>
      <point x="381" y="387" type="curve" smooth="yes"/>
      <point x="313" y="387"/>
      <point x="247" y="361"/>
      <point x="193" y="299" type="curve"/>
      <point x="210" y="296" type="line"/>
      <point x="288" y="579" type="line"/>
      <point x="266" y="595" type="line"/>
      <point x="286" y="544"/>
      <point x="340" y="506"/>
      <point x="417" y="507" type="curve" smooth="yes"/>
      <point x="519" y="506"/>
      <point x="604" y="569"/>
      <point x="622" y="647" type="curve" smooth="yes"/>
      <point x="622" y="646"/>
      <point x="621" y="644"/>
      <point x="618" y="644" type="curve" smooth="yes"/>
      <point x="611" y="644"/>
      <point x="603" y="636"/>
      <point x="594" y="623" type="curve" smooth="yes"/>
      <point x="553" y="572"/>
      <point x="502" y="552"/>
      <point x="438" y="552" type="curve" smooth="yes"/>
      <point x="377" y="552"/>
      <point x="344" y="643"/>
      <point x="303" y="643" type="curve" smooth="yes"/>
      <point x="274" y="643"/>
      <point x="259" y="623"/>
      <point x="250" y="593" type="curve" smooth="yes"/>
      <point x="168" y="273" type="line" smooth="yes"/>
      <point x="167" y="270"/>
      <point x="172" y="268"/>
      <point x="180" y="268" type="curve" smooth="yes"/>
      <point x="191" y="268"/>
      <point x="203" y="277"/>
      <point x="216" y="292" type="curve" smooth="yes"/>
      <point x="257" y="334"/>
      <point x="303" y="346"/>
      <point x="346" y="346" type="curve" smooth="yes"/>
      <point x="429" y="346"/>
      <point x="465" y="285"/>
      <point x="440" y="177" type="curve" smooth="yes"/>
      <point x="418" y="81"/>
      <point x="350" y="26"/>
      <point x="276" y="26" type="curve" smooth="yes"/>
      <point x="213" y="26"/>
      <point x="187" y="53"/>
      <point x="192" y="83" type="curve" smooth="yes"/>
      <point x="199" y="116" type="line" smooth="yes"/>
      <point x="206" y="146"/>
      <point x="192" y="166"/>
      <point x="169" y="166" type="curve" smooth="yes"/>
      <point x="145" y="166"/>
      <point x="119" y="143"/>
    </contour>
  </outline>
</glyph>
<glyph name="eight" format="2">
  <advance width="513"/>
  <unicode hex="0038"/>
  <outline>
    <contour>
      <point x="256" y="-15" type="curve" smooth="yes"/>
      <point x="366" y="-15"/>
      <point x="485" y="77"/>
      <point x="485" y="200" type="curve" smooth="yes"/>
      <point x="485" y="241"/>
      <point x="453" y="286"/>
      <point x="371" y="319" type="curve" smooth="yes"/>
      <point x="282" y="350"/>
      <point x="252" y="396"/>
      <point x="252" y="447" type="curve" smooth="yes"/>
      <point x="252" y="529"/>
      <point x="325" y="604"/>
      <point x="430" y="604" type="curve" smooth="yes"/>
      <point x="488" y="604"/>
      <point x="522" y="569"/>
      <point x="522" y="511" type="curve" smooth="yes"/>
      <point x="522" y="417"/>
      <point x="478" y="345"/>
      <point x="385" y="316" type="curve"/>
      <point x="376" y="295" type="line"/>
      <point x="485" y="332"/>
      <point x="577" y="429"/>
      <point x="577" y="528" type="curve" smooth="yes"/>
      <point x="577" y="595"/>
      <point x="538" y="644"/>
      <point x="468" y="644" type="curve" smooth="yes"/>
      <point x="321" y="644"/>
      <point x="205" y="517"/>
      <point x="205" y="400" type="curve" smooth="yes"/>
      <point x="205" y="349"/>
      <point x="247" y="304"/>
      <point x="329" y="272" type="curve" smooth="yes"/>
      <point x="408" y="242"/>
      <point x="436" y="206"/>
      <point x="436" y="166" type="curve" smooth="yes"/>
      <point x="436" y="82"/>
      <point x="378" y="21"/>
      <point x="286" y="21" type="curve" smooth="yes"/>
      <point x="229" y="21"/>
      <point x="200" y="57"/>
      <point x="200" y="116" type="curve" smooth="yes"/>
      <point x="200" y="185"/>
      <point x="242" y="266"/>
      <point x="317" y="289" type="curve"/>
      <point x="334" y="313" type="line"/>
      <point x="207" y="276"/>
      <point x="137" y="190"/>
      <point x="137" y="96" type="curve" smooth="yes"/>
      <point x="137" y="29"/>
      <point x="175" y="-15"/>
    </contour>
  </outline>
</glyph>
<glyph name="G" format="2">
  <advance width="629"/>
  <unicode hex="0047"/>
  <anchor x="498" y="783" name="center"/>
  <outline>
    <contour>
      <point x="457" y="714" type="curve" smooth="yes"/>
      <point x="234" y="714"/>
      <point x="48" y="485"/>
      <point x="48" y="245" type="curve" smooth="yes"/>
      <point x="48" y="90"/>
      <point x="138" y="-15"/>
      <point x="277" y="-15" type="curve" smooth="yes"/>
      <point x="384" y="-15"/>
      <point x="432" y="29"/>
      <point x="450" y="29" type="curve" smooth="yes"/>
      <point x="461" y="29"/>
      <point x="452" y="-15"/>
      <point x="466" y="-15" type="curve" smooth="yes"/>
      <point x="475" y="-15"/>
      <point x="481" y="-11"/>
      <point x="484" y="3" type="curve" smooth="yes"/>
      <point x="554" y="245" type="line" smooth="yes"/>
      <point x="558" y="257"/>
      <point x="567" y="266"/>
      <point x="587" y="269" type="curve" smooth="yes"/>
      <point x="615" y="274" type="line" smooth="yes"/>
      <point x="628" y="276"/>
      <point x="633" y="281"/>
      <point x="634" y="286" type="curve" smooth="yes"/>
      <point x="635" y="295"/>
      <point x="632" y="297"/>
      <point x="622" y="297" type="curve" smooth="yes"/>
      <point x="458" y="297" type="line" smooth="yes"/>
      <point x="448" y="297"/>
      <point x="442" y="295"/>
      <point x="442" y="287" type="curve" smooth="yes"/>
      <point x="442" y="280"/>
      <point x="446" y="275"/>
      <point x="456" y="274" type="curve" smooth="yes"/>
      <point x="497" y="269" type="line" smooth="yes"/>
      <point x="515" y="267"/>
      <point x="520" y="254"/>
      <point x="514" y="228" type="curve" smooth="yes"/>
      <point x="485" y="122" type="line" smooth="yes"/>
      <point x="465" y="50"/>
      <point x="395" y="7"/>
      <point x="289" y="7" type="curve" smooth="yes"/>
      <point x="156" y="7"/>
      <point x="86" y="98"/>
      <point x="86" y="239" type="curve" smooth="yes"/>
      <point x="86" y="474"/>
      <point x="262" y="694"/>
      <point x="459" y="694" type="curve" smooth="yes"/>
      <point x="536" y="694"/>
      <point x="589" y="664"/>
      <point x="619" y="587" type="curve" smooth="yes"/>
      <point x="632" y="551" type="line" smooth="yes"/>
      <point x="634" y="546"/>
      <point x="639" y="539"/>
      <point x="645" y="539" type="curve" smooth="yes"/>
      <point x="651" y="539"/>
      <point x="656" y="543"/>
      <point x="655" y="552" type="curve" smooth="yes"/>
      <point x="639" y="690" type="line" smooth="yes"/>
      <point x="637" y="704"/>
      <point x="632" y="710"/>
      <point x="623" y="710" type="curve" smooth="yes"/>
      <point x="611" y="710"/>
      <point x="603" y="685"/>
      <point x="588" y="685" type="curve" smooth="yes"/>
      <point x="573" y="685"/>
      <point x="526" y="714"/>
    </contour>
  </outline>
</glyph>
<glyph name="L" format="2">
  <advance width="579"/>
  <unicode hex="004C"/>
  <outline>
    <contour>
      <point x="407" y="0" type="line" smooth="yes"/>
      <point x="437" y="0"/>
      <point x="453" y="-18"/>
      <point x="475" y="-18" type="curve" smooth="yes"/>
      <point x="530" y="-18"/>
      <point x="571" y="35"/>
      <point x="571" y="94" type="curve" smooth="yes"/>
      <point x="571" y="108"/>
      <point x="565" y="116"/>
      <point x="554" y="116" type="curve" smooth="yes"/>
      <point x="539" y="116"/>
      <point x="537" y="106"/>
      <point x="529" y="96" type="curve" smooth="yes"/>
      <point x="512" y="75" type="line" smooth="yes"/>
      <point x="477" y="31"/>
      <point x="415" y="27"/>
      <point x="316" y="27" type="curve" smooth="yes"/>
      <point x="280" y="27"/>
      <point x="265" y="54"/>
      <point x="265" y="87" type="curve" smooth="yes"/>
      <point x="265" y="151"/>
      <point x="328" y="413"/>
      <point x="409" y="621" type="curve" smooth="yes"/>
      <point x="420" y="647"/>
      <point x="430" y="661"/>
      <point x="453" y="666" type="curve" smooth="yes"/>
      <point x="479" y="672" type="line" smooth="yes"/>
      <point x="498" y="674"/>
      <point x="508" y="679"/>
      <point x="513" y="688" type="curve" smooth="yes"/>
      <point x="521" y="698"/>
      <point x="510" y="699"/>
      <point x="495" y="699" type="curve" smooth="yes"/>
      <point x="297" y="699" type="line" smooth="yes"/>
      <point x="276" y="699"/>
      <point x="265" y="695"/>
      <point x="262" y="688" type="curve" smooth="yes"/>
      <point x="260" y="678"/>
      <point x="269" y="674"/>
      <point x="283" y="672" type="curve" smooth="yes"/>
      <point x="307" y="666" type="line" smooth="yes"/>
      <point x="325" y="661"/>
      <point x="332" y="647"/>
      <point x="329" y="628" type="curve" smooth="yes"/>
      <point x="295" y="444"/>
      <point x="244" y="261"/>
      <point x="181" y="90" type="curve"/>
      <point x="175" y="59"/>
      <point x="160" y="44"/>
      <point x="135" y="38" type="curve" smooth="yes"/>
      <point x="114" y="33" type="line" smooth="yes"/>
      <point x="92" y="25"/>
      <point x="77" y="25"/>
      <point x="76" y="13" type="curve" smooth="yes"/>
      <point x="73" y="5"/>
      <point x="80" y="0"/>
      <point x="92" y="0" type="curve" smooth="yes"/>
    </contour>
  </outline>
</glyph>
<glyph name="M" format="2">
  <advance width="733"/>
  <unicode hex="004D"/>
  <outline>
    <contour>
      <point x="370" y="142" type="line"/>
      <point x="337" y="309"/>
      <point x="303" y="496"/>
      <point x="276" y="662" type="curve" smooth="yes"/>
      <point x="272" y="688"/>
      <point x="263" y="700"/>
      <point x="247" y="700" type="curve" smooth="yes"/>
      <point x="180" y="700" type="line" smooth="yes"/>
      <point x="171" y="700"/>
      <point x="166" y="698"/>
      <point x="164" y="692" type="curve" smooth="yes"/>
      <point x="163" y="684"/>
      <point x="168" y="680"/>
      <point x="176" y="679" type="curve" smooth="yes"/>
      <point x="221" y="669" type="line" smooth="yes"/>
      <point x="238" y="666"/>
      <point x="243" y="645"/>
      <point x="237" y="621" type="curve" smooth="yes"/>
      <point x="74" y="68" type="line" smooth="yes"/>
      <point x="69" y="50"/>
      <point x="59" y="37"/>
      <point x="36" y="33" type="curve" smooth="yes"/>
      <point x="-4" y="26" type="line" smooth="yes"/>
      <point x="-17" y="23"/>
      <point x="-22" y="21"/>
      <point x="-24" y="12" type="curve" smooth="yes"/>
      <point x="-25" y="5"/>
      <point x="-20" y="0"/>
      <point x="-9" y="0" type="curve" smooth="yes"/>
      <point x="149" y="0" type="line" smooth="yes"/>
      <point x="161" y="0"/>
      <point x="168" y="3"/>
      <point x="170" y="11" type="curve" smooth="yes"/>
      <point x="172" y="16"/>
      <point x="167" y="20"/>
      <point x="160" y="22" type="curve" smooth="yes"/>
      <point x="111" y="33" type="line" smooth="yes"/>
      <point x="94" y="36"/>
      <point x="91" y="48"/>
      <point x="97" y="65" type="curve" smooth="yes"/>
      <point x="266" y="640" type="line"/>
      <point x="245" y="636" type="line"/>
      <point x="273" y="495"/>
      <point x="308" y="297"/>
      <point x="339" y="113" type="curve" smooth="yes"/>
      <point x="340" y="107"/>
      <point x="343" y="98"/>
      <point x="350" y="98" type="curve" smooth="yes"/>
      <point x="358" y="98"/>
      <point x="363" y="104"/>
      <point x="374" y="121" type="curve" smooth="yes"/>
      <point x="689" y="639" type="line"/>
      <point x="673" y="638" type="line"/>
      <point x="649" y="483"/>
      <point x="596" y="174"/>
      <point x="575" y="63" type="curve" smooth="yes"/>
      <point x="571" y="42"/>
      <point x="556" y="32"/>
      <point x="537" y="29" type="curve" smooth="yes"/>
      <point x="497" y="21" type="line" smooth="yes"/>
      <point x="489" y="20"/>
      <point x="483" y="19"/>
      <point x="482" y="12" type="curve" smooth="yes"/>
      <point x="481" y="5"/>
      <point x="484" y="0"/>
      <point x="494" y="0" type="curve" smooth="yes"/>
      <point x="667" y="0" type="line" smooth="yes"/>
      <point x="676" y="0"/>
      <point x="681" y="2"/>
      <point x="682" y="9" type="curve" smooth="yes"/>
      <point x="683" y="16"/>
      <point x="679" y="19"/>
      <point x="671" y="21" type="curve" smooth="yes"/>
      <point x="629" y="29" type="line" smooth="yes"/>
      <point x="612" y="34"/>
      <point x="607" y="44"/>
      <point x="610" y="65" type="curve" smooth="yes"/>
      <point x="626" y="171"/>
      <point x="682" y="496"/>
      <point x="707" y="637" type="curve" smooth="yes"/>
      <point x="710" y="658"/>
      <point x="722" y="670"/>
      <point x="739" y="672" type="curve" smooth="yes"/>
      <point x="774" y="678" type="line" smooth="yes"/>
      <point x="784" y="679"/>
      <point x="791" y="680"/>
      <point x="792" y="691" type="curve" smooth="yes"/>
      <point x="793" y="696"/>
      <point x="790" y="700"/>
      <point x="780" y="700" type="curve" smooth="yes"/>
      <point x="726" y="700" type="line" smooth="yes"/>
      <point x="711" y="700"/>
      <point x="697" y="693"/>
      <point x="687" y="675" type="curve" smooth="yes"/>
      <point x="361" y="134" type="line"/>
    </contour>
  </outline>
</glyph>
<glyph name="O" format="2">
  <advance width="651"/>
  <unicode hex="004F"/>
  <anchor x="469" y="773" name="center"/>
  <outline>
    <contour>
      <point x="455" y="714" type="curve" smooth="yes"/>
      <point x="280" y="714"/>
      <point x="123" y="570"/>
      <point x="68" y="378" type="curve" smooth="yes"/>
      <point x="-1" y="135"/>
      <point x="104" y="-14"/>
      <point x="263" y="-14" type="curve" smooth="yes"/>
      <point x="433" y="-14"/>
      <point x="591" y="108"/>
      <point x="650" y="340" type="curve" smooth="yes"/>
      <point x="704" y="553"/>
      <point x="609" y="714"/>
    </contour>
    <contour>
      <point x="274" y="10" type="curve" smooth="yes"/>
      <point x="125" y="10"/>
      <point x="44" y="129"/>
      <point x="105" y="371" type="curve" smooth="yes"/>
      <point x="152" y="562"/>
      <point x="294" y="690"/>
      <point x="445" y="690" type="curve" smooth="yes"/>
      <point x="581" y="690"/>
      <point x="672" y="558"/>
      <point x="614" y="347" type="curve" smooth="yes"/>
      <point x="548" y="110"/>
      <point x="404" y="10"/>
    </contour>
  </outline>
</glyph>
<glyph name="U" format="2">
  <advance width="634"/>
  <unicode hex="0055"/>
  <anchor x="445" y="738" name="center"/>
  <outline>
    <contour>
      <point x="483" y="194" type="line" smooth="yes"/>
      <point x="447" y="68"/>
      <point x="372" y="11"/>
      <point x="271" y="11" type="curve" smooth="yes"/>
      <point x="183" y="11"/>
      <point x="130" y="58"/>
      <point x="130" y="149" type="curve" smooth="yes"/>
      <point x="130" y="187"/>
      <point x="140" y="239"/>
      <point x="159" y="305" type="curve" smooth="yes"/>
      <point x="255" y="645" type="line" smooth="yes"/>
      <point x="260" y="662"/>
      <point x="270" y="668"/>
      <point x="286" y="671" type="curve" smooth="yes"/>
      <point x="329" y="679" type="line" smooth="yes"/>
      <point x="346" y="683"/>
      <point x="351" y="686"/>
      <point x="351" y="692" type="curve" smooth="yes"/>
      <point x="351" y="697"/>
      <point x="348" y="700"/>
      <point x="338" y="700" type="curve" smooth="yes"/>
      <point x="168" y="700" type="line" smooth="yes"/>
      <point x="154" y="700"/>
      <point x="147" y="696"/>
      <point x="147" y="691" type="curve" smooth="yes"/>
      <point x="147" y="684"/>
      <point x="151" y="680"/>
      <point x="165" y="677" type="curve" smooth="yes"/>
      <point x="202" y="671" type="line" smooth="yes"/>
      <point x="219" y="668"/>
      <point x="224" y="657"/>
      <point x="220" y="643" type="curve" smooth="yes"/>
      <point x="124" y="305" type="line" smooth="yes"/>
      <point x="108" y="249"/>
      <point x="93" y="184"/>
      <point x="93" y="147" type="curve" smooth="yes"/>
      <point x="93" y="55"/>
      <point x="144" y="-14"/>
      <point x="253" y="-14" type="curve" smooth="yes"/>
      <point x="387" y="-14"/>
      <point x="466" y="57"/>
      <point x="505" y="191" type="curve" smooth="yes"/>
      <point x="635" y="639" type="line" smooth="yes"/>
      <point x="641" y="660"/>
      <point x="652" y="665"/>
      <point x="671" y="669" type="curve" smooth="yes"/>
      <point x="714" y="678" type="line" smooth="yes"/>
      <point x="731" y="681"/>
      <point x="733" y="685"/>
      <point x="733" y="692" type="curve" smooth="yes"/>
      <point x="733" y="696"/>
      <point x="728" y="700"/>
      <point x="719" y="700" type="curve" smooth="yes"/>
      <point x="557" y="700" type="line" smooth="yes"/>
      <point x="546" y="700"/>
      <point x="540" y="696"/>
      <point x="540" y="689" type="curve" smooth="yes"/>
      <point x="540" y="683"/>
      <point x="546" y="680"/>
      <point x="559" y="677" type="curve" smooth="yes"/>
      <point x="593" y="669" type="line" smooth="yes"/>
      <point x="612" y="664"/>
      <point x="615" y="656"/>
      <point x="610" y="639" type="curve" smooth="yes"/>
    </contour>
  </outline>
</glyph>
<glyph name="a" format="2">
  <advance width="405"/>
  <unicode hex="0061"/>
  <anchor x="325" y="481" name="center"/>
  <outline>
    <contour>
      <point x="284" y="59" type="curve" smooth="yes"/>
      <point x="284" y="95"/>
      <point x="324" y="237"/>
      <point x="358" y="367" type="curve" smooth="yes"/>
      <point x="361" y="380"/>
      <point x="374" y="394"/>
      <point x="374" y="401" type="curve" smooth="yes"/>
      <point x="374" y="420"/>
      <point x="355" y="433"/>
      <point x="320" y="433" type="curve" smooth="yes"/>
      <point x="175" y="433"/>
      <point x="18" y="257"/>
      <point x="18" y="69" type="curve" smooth="yes"/>
      <point x="18" y="15"/>
      <point x="47" y="-9"/>
      <point x="84" y="-9" type="curve" smooth="yes"/>
      <point x="156" y="-9"/>
      <point x="246" y="81"/>
      <point x="295" y="212" type="curve"/>
      <point x="288" y="210" type="line"/>
      <point x="271" y="133"/>
      <point x="246" y="72"/>
      <point x="246" y="25" type="curve" smooth="yes"/>
      <point x="246" y="3"/>
      <point x="260" y="-9"/>
      <point x="284" y="-9" type="curve" smooth="yes"/>
      <point x="333" y="-9"/>
      <point x="372" y="28"/>
      <point x="378" y="61" type="curve" smooth="yes"/>
      <point x="379" y="66"/>
      <point x="376" y="69"/>
      <point x="372" y="69" type="curve" smooth="yes"/>
      <point x="367" y="69"/>
      <point x="362" y="66"/>
      <point x="358" y="58" type="curve" smooth="yes"/>
      <point x="340" y="37"/>
      <point x="324" y="27"/>
      <point x="311" y="27" type="curve" smooth="yes"/>
      <point x="292" y="27"/>
      <point x="284" y="39"/>
    </contour>
    <contour>
      <point x="51" y="98" type="curve" smooth="yes"/>
      <point x="51" y="250"/>
      <point x="190" y="410"/>
      <point x="294" y="410" type="curve" smooth="yes"/>
      <point x="318" y="410"/>
      <point x="330" y="400"/>
      <point x="330" y="374" type="curve" smooth="yes"/>
      <point x="330" y="254"/>
      <point x="191" y="21"/>
      <point x="105" y="21" type="curve" smooth="yes"/>
      <point x="76" y="21"/>
      <point x="51" y="32"/>
    </contour>
  </outline>
</glyph>
<glyph name="c" format="2">
  <advance width="345"/>
  <unicode hex="0063"/>
  <anchor x="312.0" y="513.0" name="center"/>
  <outline>
    <contour>
      <point x="297" y="426" type="curve" smooth="yes"/>
      <point x="324" y="426"/>
      <point x="340" y="415"/>
      <point x="340" y="405" type="curve" smooth="yes"/>
      <point x="340" y="386"/>
      <point x="329" y="363"/>
      <point x="329" y="347" type="curve" smooth="yes"/>
      <point x="329" y="333"/>
      <point x="342" y="323"/>
      <point x="361" y="323" type="curve" smooth="yes"/>
      <point x="374" y="323"/>
      <point x="385" y="342"/>
      <point x="385" y="374" type="curve" smooth="yes"/>
      <point x="385" y="411"/>
      <point x="358" y="452"/>
      <point x="304" y="452" type="curve" smooth="yes"/>
      <point x="182" y="452"/>
      <point x="72" y="269"/>
      <point x="72" y="124" type="curve" smooth="yes"/>
      <point x="72" y="40"/>
      <point x="108" y="-15"/>
      <point x="178" y="-15" type="curve" smooth="yes"/>
      <point x="255" y="-15"/>
      <point x="339" y="62"/>
      <point x="339" y="101" type="curve" smooth="yes"/>
      <point x="339" y="105"/>
      <point x="332" y="108"/>
      <point x="333" y="108" type="curve" smooth="yes"/>
      <point x="324" y="108"/>
      <point x="318" y="98"/>
      <point x="310" y="88" type="curve" smooth="yes"/>
      <point x="291" y="54"/>
      <point x="255" y="27"/>
      <point x="204" y="27" type="curve" smooth="yes"/>
      <point x="150" y="27"/>
      <point x="110" y="71"/>
      <point x="110" y="152" type="curve" smooth="yes"/>
      <point x="110" y="296"/>
      <point x="202" y="426"/>
    </contour>
  </outline>
</glyph>
<glyph name="f" format="2">
  <advance width="217"/>
  <unicode hex="0066"/>
  <outline>
    <contour>
      <point x="153" y="425" type="line"/>
      <point x="263" y="425" type="line" smooth="yes"/>
      <point x="276" y="425"/>
      <point x="287" y="430"/>
      <point x="287" y="439" type="curve" smooth="yes"/>
      <point x="287" y="443"/>
      <point x="283" y="445"/>
      <point x="278" y="445" type="curve" smooth="yes"/>
      <point x="158" y="445" type="line"/>
    </contour>
    <contour>
      <point x="60" y="436" type="curve" smooth="yes"/>
      <point x="60" y="432"/>
      <point x="63" y="427"/>
      <point x="72" y="427" type="curve" smooth="yes"/>
      <point x="126" y="426"/>
      <point x="136" y="411"/>
      <point x="128" y="381" type="curve" smooth="yes"/>
      <point x="-1" y="-94" type="line" smooth="yes"/>
      <point x="-12" y="-136"/>
      <point x="-14" y="-145"/>
      <point x="-14" y="-160" type="curve" smooth="yes"/>
      <point x="-14" y="-173"/>
      <point x="-6" y="-181"/>
      <point x="5" y="-181" type="curve" smooth="yes"/>
      <point x="23" y="-181"/>
      <point x="37" y="-169"/>
      <point x="37" y="-156" type="curve" smooth="yes"/>
      <point x="37" y="-144"/>
      <point x="29" y="-136"/>
      <point x="29" y="-120" type="curve" smooth="yes"/>
      <point x="29" y="-106"/>
      <point x="31" y="-93"/>
      <point x="36" y="-76" type="curve" smooth="yes"/>
      <point x="176" y="444" type="line" smooth="yes"/>
      <point x="188" y="490"/>
      <point x="199" y="532"/>
      <point x="199" y="561" type="curve" smooth="yes"/>
      <point x="199" y="633"/>
      <point x="241" y="681"/>
      <point x="283" y="681" type="curve" smooth="yes"/>
      <point x="308" y="681"/>
      <point x="323" y="663"/>
      <point x="345" y="663" type="curve" smooth="yes"/>
      <point x="361" y="663"/>
      <point x="369" y="671"/>
      <point x="369" y="681" type="curve" smooth="yes"/>
      <point x="369" y="695"/>
      <point x="355" y="708"/>
      <point x="328" y="708" type="curve" smooth="yes"/>
      <point x="246" y="708"/>
      <point x="199" y="661"/>
      <point x="172" y="558" type="curve" smooth="yes"/>
      <point x="142" y="445" type="line"/>
      <point x="73" y="445" type="line" smooth="yes"/>
      <point x="65" y="445"/>
      <point x="60" y="442"/>
    </contour>
  </outline>
</glyph>
<glyph name="g" format="2">
  <advance width="390"/>
  <unicode hex="0067"/>
  <outline>
    <contour>
      <point x="287" y="-12" type="curve" smooth="yes"/>
      <point x="314" y="106"/>
      <point x="357" y="293"/>
      <point x="364" y="368" type="curve" smooth="yes"/>
      <point x="366" y="384"/>
      <point x="380" y="393"/>
      <point x="380" y="402" type="curve" smooth="yes"/>
      <point x="380" y="423"/>
      <point x="359" y="435"/>
      <point x="320" y="435" type="curve" smooth="yes"/>
      <point x="179" y="435"/>
      <point x="23" y="249"/>
      <point x="23" y="74" type="curve" smooth="yes"/>
      <point x="23" y="21"/>
      <point x="47" y="-7"/>
      <point x="87" y="-7" type="curve" smooth="yes"/>
      <point x="168" y="-7"/>
      <point x="283" y="96"/>
      <point x="335" y="280" type="curve"/>
      <point x="321" y="275" type="line"/>
      <point x="319" y="229"/>
      <point x="290" y="125"/>
      <point x="250" y="-33" type="curve" smooth="yes"/>
      <point x="217" y="-165"/>
      <point x="138" y="-209"/>
      <point x="74" y="-209" type="curve" smooth="yes"/>
      <point x="35" y="-209"/>
      <point x="0" y="-196"/>
      <point x="-23" y="-196" type="curve" smooth="yes"/>
      <point x="-40" y="-196"/>
      <point x="-51" y="-202"/>
      <point x="-51" y="-215" type="curve" smooth="yes"/>
      <point x="-51" y="-233"/>
      <point x="-35" y="-245"/>
      <point x="4" y="-245" type="curve" smooth="yes"/>
      <point x="122" y="-245"/>
      <point x="247" y="-183"/>
    </contour>
    <contour>
      <point x="55" y="92" type="curve" smooth="yes"/>
      <point x="55" y="258"/>
      <point x="199" y="414"/>
      <point x="299" y="414" type="curve" smooth="yes"/>
      <point x="322" y="414"/>
      <point x="336" y="396"/>
      <point x="336" y="371" type="curve" smooth="yes"/>
      <point x="336" y="249"/>
      <point x="214" y="23"/>
      <point x="110" y="23" type="curve" smooth="yes"/>
      <point x="76" y="23"/>
      <point x="55" y="43"/>
    </contour>
  </outline>
</glyph>
<glyph name="k" format="2">
  <advance width="468"/>
  <unicode hex="006B"/>
  <outline>
    <contour>
      <point x="159" y="192" type="line"/>
      <point x="229" y="353"/>
      <point x="344" y="452"/>
      <point x="451" y="452" type="curve" smooth="yes"/>
      <point x="493" y="452"/>
      <point x="516" y="431"/>
      <point x="516" y="395" type="curve" smooth="yes"/>
      <point x="516" y="308"/>
      <point x="432" y="242"/>
      <point x="163" y="148" type="curve"/>
      <point x="161" y="159" type="line"/>
      <point x="414" y="255"/>
      <point x="478" y="327"/>
      <point x="478" y="380" type="curve" smooth="yes"/>
      <point x="478" y="405"/>
      <point x="458" y="420"/>
      <point x="426" y="420" type="curve" smooth="yes"/>
      <point x="333" y="420"/>
      <point x="210" y="302"/>
      <point x="173" y="176" type="curve" smooth="yes"/>
      <point x="165" y="151"/>
      <point x="163" y="134"/>
      <point x="163" y="121" type="curve" smooth="yes"/>
      <point x="163" y="84"/>
      <point x="183" y="68"/>
      <point x="183" y="45" type="curve" smooth="yes"/>
      <point x="183" y="9"/>
      <point x="158" y="-16"/>
      <point x="131" y="-16" type="curve" smooth="yes"/>
      <point x="113" y="-16"/>
      <point x="101" y="-1"/>
      <point x="101" y="24" type="curve" smooth="yes"/>
      <point x="101" y="43"/>
      <point x="107" y="64"/>
      <point x="113" y="91" type="curve" smooth="yes"/>
      <point x="215" y="450" type="line" smooth="yes"/>
      <point x="252" y="578"/>
      <point x="370" y="680"/>
      <point x="525" y="680" type="curve" smooth="yes"/>
      <point x="580" y="680"/>
      <point x="607" y="665"/>
      <point x="607" y="648" type="curve" smooth="yes"/>
      <point x="607" y="624"/>
      <point x="588" y="602"/>
      <point x="556" y="602" type="curve" smooth="yes"/>
      <point x="519" y="602"/>
      <point x="455" y="622"/>
      <point x="413" y="622" type="curve" smooth="yes"/>
      <point x="344" y="622"/>
      <point x="287" y="563"/>
      <point x="270" y="510" type="curve" smooth="yes"/>
      <point x="225" y="363"/>
      <point x="202" y="323"/>
      <point x="202" y="275" type="curve"/>
    </contour>
    <contour>
      <point x="282" y="218" type="curve"/>
      <point x="314" y="241" type="line"/>
      <point x="359" y="76"/>
      <point x="387" y="48"/>
      <point x="433" y="48" type="curve" smooth="yes"/>
      <point x="453" y="48"/>
      <point x="455" y="72"/>
      <point x="468" y="72" type="curve" smooth="yes"/>
      <point x="468" y="72"/>
      <point x="468" y="69"/>
      <point x="468" y="65" type="curve" smooth="yes"/>
      <point x="468" y="20"/>
      <point x="427" y="-15"/>
      <point x="398" y="-15" type="curve" smooth="yes"/>
      <point x="348" y="-15"/>
      <point x="319" y="33"/>
    </contour>
  </outline>
</glyph>
<glyph name="m" format="2">
  <advance width="672"/>
  <unicode hex="006D"/>
  <outline>
    <contour>
      <point x="274" y="60" type="line" smooth="yes"/>
      <point x="269" y="46"/>
      <point x="262" y="25"/>
      <point x="262" y="6" type="curve" smooth="yes"/>
      <point x="262" y="-2"/>
      <point x="269" y="-9"/>
      <point x="277" y="-9" type="curve" smooth="yes"/>
      <point x="296" y="-9"/>
      <point x="313" y="3"/>
      <point x="313" y="19" type="curve" smooth="yes"/>
      <point x="313" y="31"/>
      <point x="306" y="41"/>
      <point x="306" y="52" type="curve" smooth="yes"/>
      <point x="306" y="66"/>
      <point x="313" y="83"/>
      <point x="326" y="129" type="curve" smooth="yes"/>
      <point x="386" y="315"/>
      <point x="487" y="405"/>
      <point x="555" y="405" type="curve" smooth="yes"/>
      <point x="580" y="405"/>
      <point x="590" y="387"/>
      <point x="590" y="362" type="curve" smooth="yes"/>
      <point x="590" y="348"/>
      <point x="587" y="328"/>
      <point x="581" y="311" type="curve" smooth="yes"/>
      <point x="507" y="99" type="line" smooth="yes"/>
      <point x="497" y="71"/>
      <point x="490" y="53"/>
      <point x="490" y="32" type="curve" smooth="yes"/>
      <point x="490" y="6"/>
      <point x="506" y="-9"/>
      <point x="531" y="-9" type="curve" smooth="yes"/>
      <point x="580" y="-9"/>
      <point x="622" y="29"/>
      <point x="629" y="61" type="curve" smooth="yes"/>
      <point x="629" y="67"/>
      <point x="626" y="69"/>
      <point x="622" y="69" type="curve" smooth="yes"/>
      <point x="618" y="69"/>
      <point x="614" y="67"/>
      <point x="608" y="60" type="curve" smooth="yes"/>
      <point x="586" y="34"/>
      <point x="571" y="27"/>
      <point x="555" y="27" type="curve" smooth="yes"/>
      <point x="540" y="27"/>
      <point x="529" y="36"/>
      <point x="529" y="59" type="curve" smooth="yes"/>
      <point x="529" y="75"/>
      <point x="533" y="88"/>
      <point x="537" y="103" type="curve" smooth="yes"/>
      <point x="605" y="301" type="line" smooth="yes"/>
      <point x="618" y="335"/>
      <point x="625" y="359"/>
      <point x="625" y="389" type="curve" smooth="yes"/>
      <point x="625" y="414"/>
      <point x="608" y="433"/>
      <point x="580" y="433" type="curve" smooth="yes"/>
      <point x="495" y="433"/>
      <point x="380" y="330"/>
      <point x="327" y="170" type="curve"/>
      <point x="340" y="169" type="line"/>
      <point x="360" y="248"/>
      <point x="408" y="341"/>
      <point x="408" y="394" type="curve" smooth="yes"/>
      <point x="408" y="416"/>
      <point x="390" y="433"/>
      <point x="360" y="433" type="curve" smooth="yes"/>
      <point x="279" y="433"/>
      <point x="173" y="352"/>
      <point x="108" y="170" type="curve"/>
      <point x="118" y="168" type="line"/>
      <point x="137" y="267"/>
      <point x="190" y="334"/>
      <point x="190" y="396" type="curve" smooth="yes"/>
      <point x="190" y="419"/>
      <point x="175" y="433"/>
      <point x="154" y="433" type="curve" smooth="yes"/>
      <point x="103" y="433"/>
      <point x="55" y="392"/>
      <point x="48" y="363" type="curve" smooth="yes"/>
      <point x="47" y="357"/>
      <point x="50" y="353"/>
      <point x="53" y="353" type="curve" smooth="yes"/>
      <point x="59" y="353"/>
      <point x="64" y="356"/>
      <point x="68" y="363" type="curve" smooth="yes"/>
      <point x="87" y="389"/>
      <point x="104" y="403"/>
      <point x="126" y="403" type="curve" smooth="yes"/>
      <point x="147" y="403"/>
      <point x="155" y="391"/>
      <point x="155" y="371" type="curve" smooth="yes"/>
      <point x="155" y="357"/>
      <point x="150" y="336"/>
      <point x="145" y="317" type="curve" smooth="yes"/>
      <point x="56" y="66" type="line" smooth="yes"/>
      <point x="49" y="45"/>
      <point x="42" y="24"/>
      <point x="41" y="8" type="curve" smooth="yes"/>
      <point x="41" y="-3"/>
      <point x="47" y="-9"/>
      <point x="57" y="-9" type="curve" smooth="yes"/>
      <point x="77" y="-9"/>
      <point x="93" y="3"/>
      <point x="93" y="20" type="curve" smooth="yes"/>
      <point x="93" y="30"/>
      <point x="86" y="41"/>
      <point x="86" y="50" type="curve" smooth="yes"/>
      <point x="86" y="66"/>
      <point x="92" y="85"/>
      <point x="112" y="144" type="curve" smooth="yes"/>
      <point x="169" y="305"/>
      <point x="260" y="404"/>
      <point x="333" y="404" type="curve" smooth="yes"/>
      <point x="360" y="404"/>
      <point x="370" y="385"/>
      <point x="370" y="359" type="curve" smooth="yes"/>
      <point x="370" y="346"/>
      <point x="368" y="329"/>
      <point x="364" y="315" type="curve" smooth="yes"/>
    </contour>
  </outline>
</glyph>
<glyph name="n" format="2">
  <advance width="452"/>
  <unicode hex="006E"/>
  <outline>
    <contour>
      <point x="51" y="353" type="curve" smooth="yes"/>
      <point x="57" y="351"/>
      <point x="64" y="355"/>
      <point x="68" y="363" type="curve" smooth="yes"/>
      <point x="90" y="392"/>
      <point x="109" y="403"/>
      <point x="125" y="403" type="curve" smooth="yes"/>
      <point x="145" y="403"/>
      <point x="155" y="392"/>
      <point x="155" y="371" type="curve" smooth="yes"/>
      <point x="155" y="353"/>
      <point x="149" y="333"/>
      <point x="142" y="311" type="curve" smooth="yes"/>
      <point x="51" y="52" type="line" smooth="yes"/>
      <point x="45" y="33"/>
      <point x="41" y="20"/>
      <point x="41" y="8" type="curve" smooth="yes"/>
      <point x="41" y="-2"/>
      <point x="47" y="-9"/>
      <point x="57" y="-9" type="curve" smooth="yes"/>
      <point x="75" y="-9"/>
      <point x="93" y="3"/>
      <point x="93" y="17" type="curve" smooth="yes"/>
      <point x="93" y="30"/>
      <point x="86" y="42"/>
      <point x="86" y="51" type="curve" smooth="yes"/>
      <point x="86" y="61"/>
      <point x="89" y="73"/>
      <point x="109" y="137" type="curve" smooth="yes"/>
      <point x="165" y="310"/>
      <point x="271" y="405"/>
      <point x="331" y="405" type="curve" smooth="yes"/>
      <point x="359" y="405"/>
      <point x="370" y="387"/>
      <point x="370" y="361" type="curve" smooth="yes"/>
      <point x="370" y="347"/>
      <point x="366" y="326"/>
      <point x="359" y="303" type="curve" smooth="yes"/>
      <point x="292" y="116" type="line" smooth="yes"/>
      <point x="282" y="86"/>
      <point x="270" y="59"/>
      <point x="270" y="34" type="curve" smooth="yes"/>
      <point x="270" y="7"/>
      <point x="282" y="-9"/>
      <point x="309" y="-9" type="curve" smooth="yes"/>
      <point x="351" y="-9"/>
      <point x="388" y="17"/>
      <point x="407" y="53" type="curve" smooth="yes"/>
      <point x="409" y="60"/>
      <point x="409" y="67"/>
      <point x="405" y="69" type="curve" smooth="yes"/>
      <point x="398" y="70"/>
      <point x="394" y="67"/>
      <point x="388" y="60" type="curve" smooth="yes"/>
      <point x="365" y="34"/>
      <point x="349" y="27"/>
      <point x="336" y="27" type="curve" smooth="yes"/>
      <point x="317" y="27"/>
      <point x="308" y="38"/>
      <point x="308" y="60" type="curve" smooth="yes"/>
      <point x="308" y="72"/>
      <point x="311" y="87"/>
      <point x="319" y="109" type="curve" smooth="yes"/>
      <point x="385" y="299" type="line" smooth="yes"/>
      <point x="398" y="339"/>
      <point x="405" y="362"/>
      <point x="405" y="387" type="curve" smooth="yes"/>
      <point x="405" y="415"/>
      <point x="389" y="433"/>
      <point x="358" y="433" type="curve" smooth="yes"/>
      <point x="285" y="433"/>
      <point x="183" y="363"/>
      <point x="107" y="170" type="curve"/>
      <point x="119" y="168" type="line"/>
      <point x="148" y="270"/>
      <point x="190" y="350"/>
      <point x="190" y="393" type="curve" smooth="yes"/>
      <point x="190" y="420"/>
      <point x="176" y="433"/>
      <point x="155" y="433" type="curve" smooth="yes"/>
      <point x="109" y="433"/>
      <point x="73" y="407"/>
      <point x="50" y="371" type="curve" smooth="yes"/>
      <point x="45" y="363"/>
      <point x="47" y="355"/>
    </contour>
  </outline>
</glyph>
<glyph name="r" format="2">
  <advance width="307"/>
  <unicode hex="0072"/>
  <outline>
    <contour>
      <point x="48" y="353" type="curve" smooth="yes"/>
      <point x="55" y="353"/>
      <point x="61" y="359"/>
      <point x="68" y="369" type="curve" smooth="yes"/>
      <point x="82" y="388"/>
      <point x="98" y="403"/>
      <point x="122" y="403" type="curve" smooth="yes"/>
      <point x="139" y="403"/>
      <point x="150" y="390"/>
      <point x="150" y="373" type="curve" smooth="yes"/>
      <point x="150" y="355"/>
      <point x="147" y="340"/>
      <point x="140" y="320" type="curve" smooth="yes"/>
      <point x="58" y="86" type="line" smooth="yes"/>
      <point x="48" y="58"/>
      <point x="44" y="36"/>
      <point x="44" y="24" type="curve" smooth="yes"/>
      <point x="44" y="6"/>
      <point x="51" y="-8"/>
      <point x="67" y="-8" type="curve" smooth="yes"/>
      <point x="84" y="-8"/>
      <point x="99" y="3"/>
      <point x="99" y="15" type="curve" smooth="yes"/>
      <point x="99" y="26"/>
      <point x="82" y="40"/>
      <point x="82" y="57" type="curve" smooth="yes"/>
      <point x="82" y="70"/>
      <point x="88" y="86"/>
      <point x="97" y="116" type="curve" smooth="yes"/>
      <point x="172" y="327"/>
      <point x="247" y="408"/>
      <point x="290" y="408" type="curve" smooth="yes"/>
      <point x="323" y="408"/>
      <point x="307" y="352"/>
      <point x="334" y="352" type="curve" smooth="yes"/>
      <point x="351" y="352"/>
      <point x="359" y="365"/>
      <point x="359" y="382" type="curve" smooth="yes"/>
      <point x="359" y="409"/>
      <point x="340" y="433"/>
      <point x="314" y="433" type="curve" smooth="yes"/>
      <point x="246" y="433"/>
      <point x="182" y="370"/>
      <point x="92" y="140" type="curve"/>
      <point x="98" y="134" type="line"/>
      <point x="109" y="204"/>
      <point x="184" y="331"/>
      <point x="184" y="394" type="curve" smooth="yes"/>
      <point x="184" y="416"/>
      <point x="170" y="433"/>
      <point x="149" y="433" type="curve" smooth="yes"/>
      <point x="100" y="433"/>
      <point x="51" y="396"/>
      <point x="42" y="363" type="curve" smooth="yes"/>
      <point x="42" y="356"/>
      <point x="44" y="353"/>
    </contour>
  </outline>
</glyph>
<glyph name="s" format="2">
  <advance width="313"/>
  <unicode hex="0073"/>
  <outline>
    <contour>
      <point x="139" y="9" type="curve" smooth="yes"/>
      <point x="106" y="9"/>
      <point x="76" y="26"/>
      <point x="52" y="64" type="curve" smooth="yes"/>
      <point x="41" y="82"/>
      <point x="34" y="86"/>
      <point x="25" y="86" type="curve" smooth="yes"/>
      <point x="17" y="86"/>
      <point x="11" y="78"/>
      <point x="11" y="68" type="curve" smooth="yes"/>
      <point x="11" y="25"/>
      <point x="61" y="-9"/>
      <point x="117" y="-9" type="curve" smooth="yes"/>
      <point x="196" y="-9"/>
      <point x="246" y="32"/>
      <point x="246" y="95" type="curve" smooth="yes"/>
      <point x="246" y="130"/>
      <point x="232" y="157"/>
      <point x="170" y="218" type="curve" smooth="yes"/>
      <point x="126" y="259"/>
      <point x="106" y="287"/>
      <point x="106" y="328" type="curve" smooth="yes"/>
      <point x="106" y="377"/>
      <point x="148" y="414"/>
      <point x="205" y="414" type="curve" smooth="yes"/>
      <point x="239" y="414"/>
      <point x="259" y="394"/>
      <point x="274" y="369" type="curve" smooth="yes"/>
      <point x="283" y="353"/>
      <point x="292" y="347"/>
      <point x="301" y="347" type="curve" smooth="yes"/>
      <point x="312" y="347"/>
      <point x="318" y="353"/>
      <point x="318" y="366" type="curve" smooth="yes"/>
      <point x="318" y="397"/>
      <point x="286" y="432"/>
      <point x="220" y="432" type="curve" smooth="yes"/>
      <point x="134" y="432"/>
      <point x="76" y="373"/>
      <point x="76" y="313" type="curve" smooth="yes"/>
      <point x="76" y="273"/>
      <point x="90" y="243"/>
      <point x="145" y="190" type="curve" smooth="yes"/>
      <point x="202" y="132"/>
      <point x="216" y="110"/>
      <point x="216" y="80" type="curve" smooth="yes"/>
      <point x="216" y="35"/>
      <point x="182" y="9"/>
    </contour>
  </outline>
</glyph>
<glyph name="v" format="2">
  <advance width="387"/>
  <unicode hex="0076"/>
  <outline>
    <contour>
      <point x="379" y="364" type="curve" smooth="yes"/>
      <point x="379" y="412"/>
      <point x="362" y="431"/>
      <point x="341" y="431" type="curve" smooth="yes"/>
      <point x="327" y="431"/>
      <point x="315" y="420"/>
      <point x="315" y="408" type="curve" smooth="yes"/>
      <point x="315" y="395"/>
      <point x="322" y="384"/>
      <point x="335" y="373" type="curve" smooth="yes"/>
      <point x="349" y="362"/>
      <point x="355" y="349"/>
      <point x="355" y="319" type="curve" smooth="yes"/>
      <point x="355" y="167"/>
      <point x="245" y="22"/>
      <point x="157" y="22" type="curve" smooth="yes"/>
      <point x="124" y="22"/>
      <point x="108" y="47"/>
      <point x="108" y="97" type="curve" smooth="yes"/>
      <point x="108" y="182"/>
      <point x="137" y="269"/>
      <point x="236" y="410" type="curve" smooth="yes"/>
      <point x="240" y="416"/>
      <point x="244" y="423"/>
      <point x="243" y="427" type="curve" smooth="yes"/>
      <point x="243" y="432"/>
      <point x="241" y="434"/>
      <point x="237" y="434" type="curve" smooth="yes"/>
      <point x="223" y="431"/>
      <point x="215" y="418"/>
      <point x="197" y="418" type="curve" smooth="yes"/>
      <point x="175" y="418"/>
      <point x="125" y="425"/>
      <point x="104" y="425" type="curve" smooth="yes"/>
      <point x="49" y="425"/>
      <point x="14" y="381"/>
      <point x="14" y="333" type="curve" smooth="yes"/>
      <point x="14" y="307"/>
      <point x="27" y="293"/>
      <point x="45" y="293" type="curve" smooth="yes"/>
      <point x="59" y="293"/>
      <point x="70" y="302"/>
      <point x="70" y="314" type="curve" smooth="yes"/>
      <point x="70" y="323"/>
      <point x="66" y="330"/>
      <point x="56" y="337" type="curve" smooth="yes"/>
      <point x="44" y="344"/>
      <point x="40" y="353"/>
      <point x="40" y="365" type="curve" smooth="yes"/>
      <point x="40" y="384"/>
      <point x="55" y="399"/>
      <point x="85" y="399" type="curve" smooth="yes"/>
      <point x="119" y="399"/>
      <point x="183" y="385"/>
      <point x="210" y="385" type="curve"/>
      <point x="222" y="411" type="line"/>
      <point x="209" y="398"/>
      <point x="193" y="377"/>
      <point x="174" y="345" type="curve" smooth="yes"/>
      <point x="100" y="227"/>
      <point x="73" y="147"/>
      <point x="73" y="79" type="curve" smooth="yes"/>
      <point x="73" y="22"/>
      <point x="95" y="-9"/>
      <point x="137" y="-9" type="curve" smooth="yes"/>
      <point x="249" y="-9"/>
      <point x="379" y="159"/>
    </contour>
  </outline>
</glyph>
<glyph name="w" format="2">
  <advance width="641"/>
  <unicode hex="0077"/>
  <outline>
    <contour>
      <point x="466" y="452" type="curve" smooth="yes"/>
      <point x="448" y="452"/>
      <point x="431" y="427"/>
      <point x="417" y="379" type="curve" smooth="yes"/>
      <point x="396" y="320"/>
      <point x="381" y="224"/>
      <point x="381" y="109" type="curve" smooth="yes"/>
      <point x="381" y="31"/>
      <point x="408" y="-15"/>
      <point x="457" y="-15" type="curve" smooth="yes"/>
      <point x="572" y="-15"/>
      <point x="666" y="159"/>
      <point x="666" y="380" type="curve" smooth="yes"/>
      <point x="666" y="433"/>
      <point x="646" y="453"/>
      <point x="617" y="453" type="curve" smooth="yes"/>
      <point x="600" y="453"/>
      <point x="584" y="438"/>
      <point x="584" y="422" type="curve" smooth="yes"/>
      <point x="584" y="399"/>
      <point x="592" y="388"/>
      <point x="614" y="361" type="curve" smooth="yes"/>
      <point x="628" y="344"/>
      <point x="641" y="317"/>
      <point x="641" y="296" type="curve" smooth="yes"/>
      <point x="641" y="165"/>
      <point x="548" y="47"/>
      <point x="490" y="47" type="curve" smooth="yes"/>
      <point x="440" y="47"/>
      <point x="409" y="84"/>
      <point x="408" y="151" type="curve"/>
      <point x="376" y="81"/>
      <point x="317" y="48"/>
      <point x="269" y="48" type="curve" smooth="yes"/>
      <point x="228" y="48"/>
      <point x="205" y="70"/>
      <point x="205" y="117" type="curve"/>
      <point x="205" y="189"/>
      <point x="229" y="254"/>
      <point x="317" y="414" type="curve" smooth="yes"/>
      <point x="330" y="443"/>
      <point x="348" y="440"/>
      <point x="348" y="449" type="curve" smooth="yes"/>
      <point x="348" y="451"/>
      <point x="349" y="452"/>
      <point x="349" y="452" type="curve" smooth="yes"/>
      <point x="336" y="452"/>
      <point x="328" y="434"/>
      <point x="312" y="434" type="curve" smooth="yes"/>
      <point x="284" y="434"/>
      <point x="230" y="437"/>
      <point x="207" y="437" type="curve" smooth="yes"/>
      <point x="153" y="437"/>
      <point x="118" y="387"/>
      <point x="118" y="337" type="curve" smooth="yes"/>
      <point x="118" y="317"/>
      <point x="127" y="307"/>
      <point x="140" y="307" type="curve" smooth="yes"/>
      <point x="149" y="307"/>
      <point x="164" y="315"/>
      <point x="164" y="333" type="curve" smooth="yes"/>
      <point x="164" y="338"/>
      <point x="164" y="347"/>
      <point x="151" y="355" type="curve" smooth="yes"/>
      <point x="140" y="361"/>
      <point x="138" y="369"/>
      <point x="138" y="377" type="curve" smooth="yes"/>
      <point x="138" y="389"/>
      <point x="148" y="399"/>
      <point x="172" y="399" type="curve" smooth="yes"/>
      <point x="210" y="399"/>
      <point x="277" y="386"/>
      <point x="324" y="386" type="curve" smooth="yes"/>
      <point x="352" y="386"/>
      <point x="337" y="405"/>
      <point x="328" y="401" type="curve"/>
      <point x="328" y="414"/>
      <point x="327" y="422"/>
      <point x="279" y="348" type="curve" smooth="yes"/>
      <point x="201" y="217"/>
      <point x="171" y="133"/>
      <point x="171" y="89" type="curve"/>
      <point x="171" y="26"/>
      <point x="193" y="-15"/>
      <point x="229" y="-15" type="curve" smooth="yes"/>
      <point x="337" y="-15"/>
      <point x="428" y="109"/>
      <point x="464" y="271" type="curve" smooth="yes"/>
      <point x="473" y="320"/>
      <point x="479" y="369"/>
      <point x="479" y="422" type="curve" smooth="yes"/>
      <point x="479" y="443"/>
      <point x="473" y="452"/>
    </contour>
  </outline>
</glyph>
<glyph name="z" format="2">
  <advance width="389"/>
  <unicode hex="007A"/>
  <outline>
    <contour>
      <point x="154" y="75" type="curve"/>
      <point x="123" y="76" type="line"/>
      <point x="154" y="76"/>
      <point x="243" y="45"/>
      <point x="288" y="45" type="curve" smooth="yes"/>
      <point x="314" y="45"/>
      <point x="329" y="57"/>
      <point x="338" y="86" type="curve" smooth="yes"/>
      <point x="342" y="104"/>
      <point x="350" y="112"/>
      <point x="357" y="112" type="curve" smooth="yes"/>
      <point x="363" y="112"/>
      <point x="365" y="106"/>
      <point x="365" y="94" type="curve" smooth="yes"/>
      <point x="365" y="29"/>
      <point x="319" y="-15"/>
      <point x="264" y="-15" type="curve" smooth="yes"/>
      <point x="228" y="-15"/>
      <point x="177" y="59"/>
      <point x="156" y="59" type="curve" smooth="yes"/>
      <point x="132" y="59"/>
      <point x="123" y="-15"/>
      <point x="68" y="-15" type="curve" smooth="yes"/>
      <point x="52" y="-15"/>
      <point x="41" y="-3"/>
      <point x="41" y="14" type="curve" smooth="yes"/>
      <point x="41" y="33"/>
      <point x="52" y="50"/>
      <point x="68" y="59" type="curve" smooth="yes"/>
      <point x="93" y="71"/>
      <point x="175" y="138"/>
      <point x="294" y="242" type="curve" smooth="yes"/>
      <point x="340" y="282"/>
      <point x="353" y="316"/>
      <point x="353" y="341" type="curve"/>
      <point x="367" y="347" type="line"/>
      <point x="327" y="347"/>
      <point x="227" y="383"/>
      <point x="181" y="383" type="curve" smooth="yes"/>
      <point x="161" y="383"/>
      <point x="154" y="375"/>
      <point x="154" y="364" type="curve" smooth="yes"/>
      <point x="154" y="357"/>
      <point x="157" y="350"/>
      <point x="169" y="345" type="curve" smooth="yes"/>
      <point x="182" y="338"/>
      <point x="189" y="330"/>
      <point x="189" y="320" type="curve" smooth="yes"/>
      <point x="189" y="302"/>
      <point x="177" y="291"/>
      <point x="162" y="291" type="curve" smooth="yes"/>
      <point x="153" y="291"/>
      <point x="147" y="300"/>
      <point x="147" y="315" type="curve" smooth="yes"/>
      <point x="147" y="385"/>
      <point x="194" y="452"/>
      <point x="265" y="452" type="curve" smooth="yes"/>
      <point x="309" y="452"/>
      <point x="330" y="357"/>
      <point x="352" y="357" type="curve" smooth="yes"/>
      <point x="361" y="357"/>
      <point x="367" y="360"/>
      <point x="369" y="396" type="curve" smooth="yes"/>
      <point x="370" y="429"/>
      <point x="389" y="452"/>
      <point x="415" y="452" type="curve" smooth="yes"/>
      <point x="426" y="452"/>
      <point x="443" y="426"/>
      <point x="443" y="408" type="curve" smooth="yes"/>
      <point x="443" y="356"/>
      <point x="420" y="336"/>
      <point x="397" y="315" type="curve" smooth="yes"/>
      <point x="372" y="291"/>
      <point x="311" y="236"/>
      <point x="267" y="197" type="curve" smooth="yes"/>
      <point x="175" y="120"/>
      <point x="153" y="90"/>
    </contour>
  </outline>
</glyph>
<glyph name="h.alt" format="2">
  <advance width="430"/>
  <outline>
    <contour>
      <point x="217" y="583" type="curve" smooth="yes"/>
      <point x="159" y="396"/>
      <point x="120" y="267"/>
      <point x="106" y="207" type="curve"/>
      <point x="96" y="208" type="line"/>
      <point x="167" y="361"/>
      <point x="256" y="434"/>
      <point x="337" y="434" type="curve" smooth="yes"/>
      <point x="365" y="434"/>
      <point x="383" y="419"/>
      <point x="383" y="391" type="curve" smooth="yes"/>
      <point x="383" y="363"/>
      <point x="377" y="343"/>
      <point x="363" y="302" type="curve" smooth="yes"/>
      <point x="295" y="102" type="line" smooth="yes"/>
      <point x="290" y="86"/>
      <point x="286" y="68"/>
      <point x="286" y="55" type="curve" smooth="yes"/>
      <point x="286" y="35"/>
      <point x="297" y="25"/>
      <point x="312" y="25" type="curve" smooth="yes"/>
      <point x="329" y="25"/>
      <point x="342" y="33"/>
      <point x="362" y="53" type="curve" smooth="yes"/>
      <point x="368" y="62"/>
      <point x="373" y="67"/>
      <point x="379" y="67" type="curve" smooth="yes"/>
      <point x="384" y="67"/>
      <point x="387" y="64"/>
      <point x="386" y="61" type="curve" smooth="yes"/>
      <point x="379" y="27"/>
      <point x="338" y="-11"/>
      <point x="286" y="-11" type="curve" smooth="yes"/>
      <point x="261" y="-11"/>
      <point x="247" y="5"/>
      <point x="247" y="30" type="curve" smooth="yes"/>
      <point x="247" y="46"/>
      <point x="251" y="60"/>
      <point x="261" y="88" type="curve" smooth="yes"/>
      <point x="339" y="311" type="line" smooth="yes"/>
      <point x="345" y="330"/>
      <point x="348" y="348"/>
      <point x="348" y="365" type="curve" smooth="yes"/>
      <point x="348" y="391"/>
      <point x="339" y="409"/>
      <point x="311" y="409" type="curve" smooth="yes"/>
      <point x="259" y="409"/>
      <point x="157" y="333"/>
      <point x="94" y="155" type="curve" smooth="yes"/>
      <point x="74" y="99"/>
      <point x="63" y="72"/>
      <point x="63" y="50" type="curve" smooth="yes"/>
      <point x="63" y="33"/>
      <point x="69" y="26"/>
      <point x="69" y="16" type="curve" smooth="yes"/>
      <point x="69" y="0"/>
      <point x="52" y="-11"/>
      <point x="36" y="-11" type="curve" smooth="yes"/>
      <point x="26" y="-11"/>
      <point x="19" y="-6"/>
      <point x="19" y="5" type="curve" smooth="yes"/>
      <point x="19" y="14"/>
      <point x="21" y="25"/>
      <point x="31" y="59" type="curve" smooth="yes"/>
      <point x="191" y="584" type="line" smooth="yes"/>
      <point x="198" y="607"/>
      <point x="201" y="624"/>
      <point x="201" y="645" type="curve" smooth="yes"/>
      <point x="201" y="666"/>
      <point x="188" y="676"/>
      <point x="172" y="676" type="curve" smooth="yes"/>
      <point x="154" y="676"/>
      <point x="140" y="670"/>
      <point x="126" y="655" type="curve" smooth="yes"/>
      <point x="119" y="648"/>
      <point x="112" y="638"/>
      <point x="105" y="638" type="curve" smooth="yes"/>
      <point x="100" y="638"/>
      <point x="97" y="641"/>
      <point x="98" y="648" type="curve" smooth="yes"/>
      <point x="105" y="669"/>
      <point x="151" y="708"/>
      <point x="201" y="708" type="curve" smooth="yes"/>
      <point x="222" y="708"/>
      <point x="234" y="692"/>
      <point x="234" y="667" type="curve" smooth="yes"/>
      <point x="234" y="642"/>
      <point x="228" y="620"/>
    </contour>
  </outline>
</glyph>
